<?xml version="1.0" encoding="utf-8"?>
<!-- Generator: Adobe Illustrator 24.3.0, SVG Export Plug-In . SVG Version: 6.00 Build 0)  -->
<svg version="1.1" id="Calque_1" xmlns="http://www.w3.org/2000/svg" xmlns:xlink="http://www.w3.org/1999/xlink" x="0px" y="0px"
	 viewBox="0 0 636.8 313.6" style="enable-background:new 0 0 636.8 313.6;" xml:space="preserve">
<style type="text/css">
	.st0{fill:#FFFFFF;}
</style>
<g>
	<g>
		<path class="st0" d="M324.3,171.5c-7.3,5.1-16.2,8.1-25.8,8.1c-24.9,0-45.1-20.2-45.1-45.1c0-24.9,20.2-45.1,45.1-45.1
			c24.9,0,45.1,20.2,45.1,45.1c0,1,0,2.1-0.1,3.1l32.7-57.8c-17.2-24.4-45.6-40.3-77.7-40.3c-52.5,0-95,42.5-95,95
			c0,50.2,38.9,91.2,88.1,94.8L324.3,171.5z"/>
		<polygon class="st0" points="514.8,49.7 467.2,133.7 419.6,49.7 322.9,220.7 370.5,220.7 418.8,135.2 466.8,220 514.8,135.2 
			563.1,220.7 611.5,220.7 		"/>
		<polygon class="st0" points="114.8,182.2 95.9,182.2 122,134.4 171.2,220.7 218.8,220.7 122,49.7 25.3,220.7 122,220.7 
			136.4,220.7 		"/>
	</g>
	<g>
		<path class="st0" d="M58.6,273.5h-7.2l-2.9-7.5H35.4l-2.7,7.5h-7l12.8-32.9h7L58.6,273.5z M46.4,260.5l-4.5-12.2l-4.4,12.2H46.4z"
			/>
		<path class="st0" d="M62.3,273.5v-32.6h6.6v27h16.5v5.5H62.3z"/>
		<path class="st0" d="M105.4,261.4v-5.5h14.3V269c-1.4,1.3-3.4,2.5-6,3.6c-2.6,1-5.3,1.5-8,1.5c-3.4,0-6.4-0.7-9-2.2
			c-2.6-1.4-4.5-3.5-5.8-6.2S89,260.1,89,257c0-3.4,0.7-6.5,2.2-9.1c1.4-2.7,3.5-4.7,6.3-6.1c2.1-1.1,4.7-1.6,7.9-1.6
			c4.1,0,7.3,0.9,9.6,2.6c2.3,1.7,3.8,4.1,4.4,7.1l-6.6,1.2c-0.5-1.6-1.3-2.9-2.6-3.8c-1.3-0.9-2.9-1.4-4.8-1.4
			c-2.9,0-5.2,0.9-6.9,2.8c-1.7,1.8-2.6,4.6-2.6,8.2c0,3.9,0.9,6.8,2.6,8.8c1.7,1.9,4,2.9,6.8,2.9c1.4,0,2.8-0.3,4.2-0.8
			c1.4-0.5,2.6-1.2,3.6-2v-4.2H105.4z"/>
		<path class="st0" d="M125.9,273.5v-32.9h24.4v5.6h-17.7v7.3H149v5.5h-16.5v8.9h18.4v5.5H125.9z"/>
		<path class="st0" d="M156.5,273.5v-32.9h14c3.5,0,6.1,0.3,7.7,0.9c1.6,0.6,2.9,1.6,3.8,3.1c1,1.5,1.4,3.2,1.4,5.2
			c0,2.5-0.7,4.5-2.2,6.1c-1.4,1.6-3.6,2.6-6.5,3c1.4,0.8,2.6,1.8,3.6,2.8c0.9,1,2.2,2.8,3.8,5.3l4,6.4h-7.9l-4.8-7.1
			c-1.7-2.6-2.9-4.2-3.5-4.8s-1.3-1.1-2-1.4c-0.7-0.2-1.8-0.4-3.3-0.4h-1.3v13.7H156.5z M163.1,254.5h4.9c3.2,0,5.2-0.1,6-0.4
			c0.8-0.3,1.4-0.7,1.9-1.4c0.4-0.7,0.7-1.5,0.7-2.5c0-1.1-0.3-2-0.9-2.7c-0.6-0.7-1.4-1.1-2.5-1.3c-0.5-0.1-2.2-0.1-4.8-0.1h-5.2
			V254.5z"/>
		<path class="st0" d="M189.4,273.5v-32.9h6.6v32.9H189.4z"/>
		<path class="st0" d="M202.4,273.5v-32.9h24.4v5.6H209v7.3h16.5v5.5H209v8.9h18.4v5.5H202.4z"/>
		<path class="st0" d="M266.7,261.4l6.4,2c-1,3.6-2.6,6.2-4.9,8c-2.3,1.7-5.2,2.6-8.7,2.6c-4.4,0-7.9-1.5-10.8-4.5
			c-2.8-3-4.2-7.1-4.2-12.2c0-5.5,1.4-9.7,4.2-12.7c2.8-3,6.5-4.5,11.1-4.5c4,0,7.3,1.2,9.8,3.6c1.5,1.4,2.6,3.4,3.4,6l-6.6,1.6
			c-0.4-1.7-1.2-3-2.4-4c-1.2-1-2.7-1.5-4.5-1.5c-2.4,0-4.4,0.9-5.9,2.6c-1.5,1.7-2.3,4.6-2.3,8.5c0,4.2,0.7,7.1,2.2,8.9
			c1.5,1.8,3.4,2.6,5.8,2.6c1.8,0,3.3-0.6,4.5-1.7S266.2,263.8,266.7,261.4z"/>
		<path class="st0" d="M287.5,273.5v-13.8l-12-19h7.8l7.7,13l7.6-13h7.6l-12.1,19.1v13.8H287.5z"/>
		<path class="st0" d="M309.5,240.6h13.1c2.6,0,4.5,0.1,5.8,0.3s2.4,0.7,3.4,1.4c1,0.7,1.8,1.6,2.5,2.7s1,2.4,1,3.8
			c0,1.5-0.4,3-1.2,4.2c-0.8,1.3-2,2.2-3.4,2.9c2,0.6,3.5,1.6,4.6,3c1.1,1.4,1.6,3.1,1.6,5c0,1.5-0.3,2.9-1,4.4
			c-0.7,1.4-1.6,2.5-2.8,3.4c-1.2,0.8-2.7,1.4-4.4,1.6c-1.1,0.1-3.8,0.2-8,0.2h-11.2V240.6z M316.1,246.1v7.6h4.3
			c2.6,0,4.2,0,4.8-0.1c1.1-0.1,2-0.5,2.7-1.2c0.6-0.7,1-1.5,1-2.6c0-1-0.3-1.8-0.8-2.5c-0.6-0.6-1.4-1-2.5-1.2
			c-0.7-0.1-2.5-0.1-5.7-0.1H316.1z M316.1,259.2v8.8h6.1c2.4,0,3.9-0.1,4.5-0.2c1-0.2,1.8-0.6,2.4-1.3c0.6-0.7,0.9-1.6,0.9-2.8
			c0-1-0.2-1.8-0.7-2.5c-0.5-0.7-1.2-1.2-2.1-1.5s-2.9-0.5-5.9-0.5H316.1z"/>
		<path class="st0" d="M342.6,273.5v-32.9H367v5.6h-17.7v7.3h16.5v5.5h-16.5v8.9h18.4v5.5H342.6z"/>
		<path class="st0" d="M373.3,273.5v-32.9h14c3.5,0,6.1,0.3,7.7,0.9c1.6,0.6,2.9,1.6,3.8,3.1c1,1.5,1.4,3.2,1.4,5.2
			c0,2.5-0.7,4.5-2.2,6.1c-1.4,1.6-3.6,2.6-6.5,3c1.4,0.8,2.6,1.8,3.6,2.8s2.2,2.8,3.8,5.3l4,6.4h-7.9l-4.8-7.1
			c-1.7-2.6-2.9-4.2-3.5-4.8c-0.6-0.7-1.3-1.1-2-1.4c-0.7-0.2-1.8-0.4-3.3-0.4h-1.3v13.7H373.3z M379.9,254.5h4.9
			c3.2,0,5.2-0.1,6-0.4s1.4-0.7,1.9-1.4c0.4-0.7,0.7-1.5,0.7-2.5c0-1.1-0.3-2-0.9-2.7s-1.4-1.1-2.5-1.3c-0.5-0.1-2.2-0.1-4.8-0.1
			h-5.2V254.5z"/>
		<path class="st0" d="M419,273.5v-32.9h9.9l6,22.4l5.9-22.4h9.9v32.9h-6.2v-25.9l-6.5,25.9h-6.4l-6.5-25.9v25.9H419z"/>
		<path class="st0" d="M487,273.5h-7.2l-2.9-7.5h-13.1l-2.7,7.5h-7l12.8-32.9h7L487,273.5z M474.8,260.5l-4.5-12.2l-4.4,12.2H474.8z
			"/>
		<path class="st0" d="M490.5,273.5v-32.9h14c3.5,0,6.1,0.3,7.7,0.9c1.6,0.6,2.9,1.6,3.8,3.1c1,1.5,1.4,3.2,1.4,5.2
			c0,2.5-0.7,4.5-2.2,6.1c-1.4,1.6-3.6,2.6-6.5,3c1.4,0.8,2.6,1.8,3.6,2.8c0.9,1,2.2,2.8,3.8,5.3l4,6.4h-7.9l-4.8-7.1
			c-1.7-2.6-2.9-4.2-3.5-4.8c-0.6-0.7-1.3-1.1-2-1.4c-0.7-0.2-1.8-0.4-3.3-0.4h-1.3v13.7H490.5z M497.2,254.5h4.9
			c3.2,0,5.2-0.1,6-0.4s1.4-0.7,1.9-1.4c0.4-0.7,0.7-1.5,0.7-2.5c0-1.1-0.3-2-0.9-2.7s-1.4-1.1-2.5-1.3c-0.5-0.1-2.2-0.1-4.8-0.1
			h-5.2V254.5z"/>
		<path class="st0" d="M523.7,273.5v-32.9h6.6v14.6l13.4-14.6h8.9l-12.4,12.8l13,20.1h-8.6l-9-15.4l-5.4,5.5v9.9H523.7z"/>
		<path class="st0" d="M556.8,273.5v-32.9h24.4v5.6h-17.7v7.3h16.5v5.5h-16.5v8.9h18.4v5.5H556.8z"/>
		<path class="st0" d="M594.8,273.5v-27.3H585v-5.6h26.1v5.6h-9.7v27.3H594.8z"/>
	</g>
</g>
</svg>
